<mxfile host="app.diagrams.net" modified="2023-08-27T08:41:29.270Z" agent="Mozilla/5.0 (Macintosh; Intel Mac OS X 10_15_7) AppleWebKit/537.36 (KHTML, like Gecko) Chrome/116.0.0.0 Safari/537.36" etag="71soQahOVaMax0o-QFY4" version="21.6.8" type="github">
  <diagram name="Trang-1" id="ChxupO0PFkkxSoJnY_z6">
    <mxGraphModel dx="1900" dy="1083" grid="0" gridSize="10" guides="1" tooltips="1" connect="1" arrows="1" fold="1" page="0" pageScale="1" pageWidth="827" pageHeight="1169" math="0" shadow="0">
      <root>
        <mxCell id="0" />
        <mxCell id="1" parent="0" />
        <mxCell id="7yUPPWwiyMOL_b9FzB-S-2" value="Học viên" style="ellipse;whiteSpace=wrap;html=1;labelBackgroundColor=none;rounded=1;fillColor=#F2CC8F;strokeColor=#E07A5F;fontColor=#393C56;" parent="1" vertex="1">
          <mxGeometry x="-410" y="-120" width="120" height="80" as="geometry" />
        </mxCell>
        <mxCell id="7yUPPWwiyMOL_b9FzB-S-3" value="Nhân viên tiếp nhận hồ sơ" style="ellipse;whiteSpace=wrap;html=1;labelBackgroundColor=none;rounded=1;fillColor=#F2CC8F;strokeColor=#E07A5F;fontColor=#393C56;" parent="1" vertex="1">
          <mxGeometry x="280" y="-120" width="120" height="80" as="geometry" />
        </mxCell>
        <mxCell id="7yUPPWwiyMOL_b9FzB-S-4" value="Kế toán" style="ellipse;whiteSpace=wrap;html=1;labelBackgroundColor=none;rounded=1;fillColor=#F2CC8F;strokeColor=#E07A5F;fontColor=#393C56;" parent="1" vertex="1">
          <mxGeometry x="290" y="110" width="120" height="80" as="geometry" />
        </mxCell>
        <mxCell id="7yUPPWwiyMOL_b9FzB-S-5" value="Giáo vụ" style="ellipse;whiteSpace=wrap;html=1;labelBackgroundColor=none;rounded=1;fillColor=#F2CC8F;strokeColor=#E07A5F;fontColor=#393C56;" parent="1" vertex="1">
          <mxGeometry x="280" y="320" width="120" height="80" as="geometry" />
        </mxCell>
        <mxCell id="7yUPPWwiyMOL_b9FzB-S-7" value="Giáo viên" style="ellipse;whiteSpace=wrap;html=1;labelBackgroundColor=none;rounded=1;fillColor=#F2CC8F;strokeColor=#E07A5F;fontColor=#393C56;" parent="1" vertex="1">
          <mxGeometry x="-410" y="320" width="120" height="80" as="geometry" />
        </mxCell>
        <mxCell id="7yUPPWwiyMOL_b9FzB-S-9" value="" style="endArrow=classic;html=1;rounded=1;entryX=0.09;entryY=0.024;entryDx=0;entryDy=0;entryPerimeter=0;exitX=0.933;exitY=0.748;exitDx=0;exitDy=0;exitPerimeter=0;labelBackgroundColor=none;fontColor=default;strokeColor=#E07A5F;" parent="1" source="7yUPPWwiyMOL_b9FzB-S-2" target="7yUPPWwiyMOL_b9FzB-S-25" edge="1">
          <mxGeometry width="50" height="50" relative="1" as="geometry">
            <mxPoint x="-290" y="-60" as="sourcePoint" />
            <mxPoint x="-59.51999999999998" y="41.07999999999993" as="targetPoint" />
            <Array as="points">
              <mxPoint x="-60" y="-60" />
            </Array>
          </mxGeometry>
        </mxCell>
        <mxCell id="7yUPPWwiyMOL_b9FzB-S-10" value="" style="endArrow=classic;html=1;rounded=1;exitX=1;exitY=0.5;exitDx=0;exitDy=0;entryX=0.17;entryY=0.015;entryDx=0;entryDy=0;entryPerimeter=0;labelBackgroundColor=none;fontColor=default;strokeColor=#E07A5F;" parent="1" source="7yUPPWwiyMOL_b9FzB-S-2" target="7yUPPWwiyMOL_b9FzB-S-25" edge="1">
          <mxGeometry width="50" height="50" relative="1" as="geometry">
            <mxPoint x="-190" y="10" as="sourcePoint" />
            <mxPoint x="-40" y="40" as="targetPoint" />
            <Array as="points">
              <mxPoint x="-40" y="-80" />
            </Array>
          </mxGeometry>
        </mxCell>
        <mxCell id="7yUPPWwiyMOL_b9FzB-S-11" value="" style="endArrow=classic;html=1;rounded=1;entryX=0.38;entryY=-0.005;entryDx=0;entryDy=0;entryPerimeter=0;exitX=0.926;exitY=0.243;exitDx=0;exitDy=0;exitPerimeter=0;labelBackgroundColor=none;fontColor=default;strokeColor=#E07A5F;" parent="1" source="7yUPPWwiyMOL_b9FzB-S-2" edge="1">
          <mxGeometry width="50" height="50" relative="1" as="geometry">
            <mxPoint x="-190" y="10" as="sourcePoint" />
            <mxPoint x="-19.200000000000045" y="39.399999999999864" as="targetPoint" />
            <Array as="points">
              <mxPoint x="-20" y="-100" />
            </Array>
          </mxGeometry>
        </mxCell>
        <mxCell id="7yUPPWwiyMOL_b9FzB-S-12" value="" style="endArrow=classic;html=1;rounded=1;exitX=0.571;exitY=0;exitDx=0;exitDy=0;exitPerimeter=0;entryX=0.5;entryY=0;entryDx=0;entryDy=0;labelBackgroundColor=none;fontColor=default;strokeColor=#E07A5F;" parent="1" source="7yUPPWwiyMOL_b9FzB-S-2" edge="1">
          <mxGeometry width="50" height="50" relative="1" as="geometry">
            <mxPoint x="-190" y="10" as="sourcePoint" />
            <mxPoint y="40" as="targetPoint" />
            <Array as="points">
              <mxPoint y="-120" />
            </Array>
          </mxGeometry>
        </mxCell>
        <mxCell id="7yUPPWwiyMOL_b9FzB-S-13" value="" style="endArrow=classic;html=1;rounded=1;exitX=0.5;exitY=0;exitDx=0;exitDy=0;entryX=0.63;entryY=-0.012;entryDx=0;entryDy=0;entryPerimeter=0;labelBackgroundColor=none;fontColor=default;strokeColor=#E07A5F;" parent="1" source="7yUPPWwiyMOL_b9FzB-S-2" edge="1">
          <mxGeometry width="50" height="50" relative="1" as="geometry">
            <mxPoint x="-190" y="-60" as="sourcePoint" />
            <mxPoint x="20.799999999999955" y="38.559999999999945" as="targetPoint" />
            <Array as="points">
              <mxPoint x="-340" y="-140" />
              <mxPoint x="20" y="-140" />
            </Array>
          </mxGeometry>
        </mxCell>
        <mxCell id="7yUPPWwiyMOL_b9FzB-S-14" value="" style="endArrow=classic;html=1;rounded=1;exitX=0.035;exitY=0.04;exitDx=0;exitDy=0;exitPerimeter=0;entryX=0.747;entryY=0.942;entryDx=0;entryDy=0;entryPerimeter=0;labelBackgroundColor=none;fontColor=default;strokeColor=#E07A5F;" parent="1" source="7yUPPWwiyMOL_b9FzB-S-25" target="7yUPPWwiyMOL_b9FzB-S-2" edge="1">
          <mxGeometry width="50" height="50" relative="1" as="geometry">
            <mxPoint x="-80" y="40" as="sourcePoint" />
            <mxPoint x="-321" y="-40" as="targetPoint" />
            <Array as="points">
              <mxPoint x="-90" y="40" />
              <mxPoint x="-320" y="40" />
            </Array>
          </mxGeometry>
        </mxCell>
        <mxCell id="7yUPPWwiyMOL_b9FzB-S-15" value="" style="endArrow=classic;html=1;rounded=1;fontFamily=Helvetica;fontSize=12;fontColor=default;entryX=0.582;entryY=0.985;entryDx=0;entryDy=0;entryPerimeter=0;exitX=0.582;exitY=0.985;exitDx=0;exitDy=0;exitPerimeter=0;labelBackgroundColor=none;strokeColor=#E07A5F;" parent="1" target="7yUPPWwiyMOL_b9FzB-S-2" edge="1">
          <mxGeometry width="50" height="50" relative="1" as="geometry">
            <mxPoint x="-80.48000000000002" y="59.680000000000064" as="sourcePoint" />
            <mxPoint x="-360" y="-40" as="targetPoint" />
            <Array as="points">
              <mxPoint x="-340" y="60" />
            </Array>
          </mxGeometry>
        </mxCell>
        <mxCell id="7yUPPWwiyMOL_b9FzB-S-16" value="" style="endArrow=classic;html=1;rounded=1;fontFamily=Helvetica;fontSize=12;fontColor=default;exitX=0.417;exitY=0.994;exitDx=0;exitDy=0;exitPerimeter=0;entryX=0.417;entryY=0.994;entryDx=0;entryDy=0;entryPerimeter=0;labelBackgroundColor=none;strokeColor=#E07A5F;" parent="1" target="7yUPPWwiyMOL_b9FzB-S-2" edge="1">
          <mxGeometry width="50" height="50" relative="1" as="geometry">
            <mxPoint x="-80" y="80" as="sourcePoint" />
            <mxPoint x="-360" y="-39" as="targetPoint" />
            <Array as="points">
              <mxPoint x="-360" y="80" />
            </Array>
          </mxGeometry>
        </mxCell>
        <mxCell id="7yUPPWwiyMOL_b9FzB-S-19" value="" style="endArrow=classic;html=1;rounded=1;fontFamily=Helvetica;fontSize=12;fontColor=default;exitX=0.255;exitY=0.948;exitDx=0;exitDy=0;exitPerimeter=0;entryX=0.255;entryY=0.948;entryDx=0;entryDy=0;entryPerimeter=0;labelBackgroundColor=none;strokeColor=#E07A5F;" parent="1" target="7yUPPWwiyMOL_b9FzB-S-2" edge="1">
          <mxGeometry width="50" height="50" relative="1" as="geometry">
            <mxPoint x="-80" y="100" as="sourcePoint" />
            <mxPoint x="-180" y="110" as="targetPoint" />
            <Array as="points">
              <mxPoint x="-380" y="100" />
            </Array>
          </mxGeometry>
        </mxCell>
        <mxCell id="7yUPPWwiyMOL_b9FzB-S-20" value="" style="endArrow=classic;html=1;rounded=1;fontFamily=Helvetica;fontSize=12;fontColor=default;exitX=0.084;exitY=0.773;exitDx=0;exitDy=0;exitPerimeter=0;entryX=0.084;entryY=0.773;entryDx=0;entryDy=0;entryPerimeter=0;labelBackgroundColor=none;strokeColor=#E07A5F;" parent="1" target="7yUPPWwiyMOL_b9FzB-S-2" edge="1">
          <mxGeometry width="50" height="50" relative="1" as="geometry">
            <mxPoint x="-80" y="120" as="sourcePoint" />
            <mxPoint x="-401" y="-60" as="targetPoint" />
            <Array as="points">
              <mxPoint x="-400" y="120" />
            </Array>
          </mxGeometry>
        </mxCell>
        <mxCell id="7yUPPWwiyMOL_b9FzB-S-21" value="" style="endArrow=classic;html=1;rounded=1;fontFamily=Helvetica;fontSize=12;fontColor=default;exitX=0.345;exitY=0.031;exitDx=0;exitDy=0;exitPerimeter=0;entryX=0.75;entryY=0;entryDx=0;entryDy=0;labelBackgroundColor=none;strokeColor=#E07A5F;" parent="1" source="7yUPPWwiyMOL_b9FzB-S-2" edge="1">
          <mxGeometry width="50" height="50" relative="1" as="geometry">
            <mxPoint x="-180" y="110" as="sourcePoint" />
            <mxPoint x="40" y="40" as="targetPoint" />
            <Array as="points">
              <mxPoint x="-350" y="-160" />
              <mxPoint x="40" y="-160" />
            </Array>
          </mxGeometry>
        </mxCell>
        <mxCell id="7yUPPWwiyMOL_b9FzB-S-23" value="" style="endArrow=classic;html=1;rounded=1;fontFamily=Helvetica;fontSize=12;fontColor=default;exitX=0;exitY=0.5;exitDx=0;exitDy=0;entryX=0;entryY=0.5;entryDx=0;entryDy=0;labelBackgroundColor=none;strokeColor=#E07A5F;" parent="1" target="7yUPPWwiyMOL_b9FzB-S-2" edge="1">
          <mxGeometry width="50" height="50" relative="1" as="geometry">
            <mxPoint x="-79.51999999999998" y="139" as="sourcePoint" />
            <mxPoint x="-210" y="40" as="targetPoint" />
            <Array as="points">
              <mxPoint x="-420" y="140" />
              <mxPoint x="-420" y="-60" />
            </Array>
          </mxGeometry>
        </mxCell>
        <mxCell id="7yUPPWwiyMOL_b9FzB-S-25" value="&lt;font style=&quot;font-size: 14px;&quot;&gt;Hệ thống thông tin quản lý học viên&lt;br&gt;Trung tâm VF&lt;/font&gt;" style="shape=cylinder3;whiteSpace=wrap;html=1;boundedLbl=1;backgroundOutline=1;size=15;rounded=1;shadow=0;glass=0;fontFamily=Helvetica;fontSize=12;labelBackgroundColor=none;fillColor=#F2CC8F;strokeColor=#E07A5F;fontColor=#393C56;" parent="1" vertex="1">
          <mxGeometry x="-80" y="40" width="240" height="240" as="geometry" />
        </mxCell>
        <mxCell id="7yUPPWwiyMOL_b9FzB-S-26" value="" style="endArrow=classic;html=1;rounded=1;fontFamily=Helvetica;fontSize=12;fontColor=default;entryX=0.707;entryY=0.006;entryDx=0;entryDy=0;entryPerimeter=0;exitX=0.067;exitY=0.251;exitDx=0;exitDy=0;exitPerimeter=0;labelBackgroundColor=none;strokeColor=#E07A5F;" parent="1" source="7yUPPWwiyMOL_b9FzB-S-3" target="7yUPPWwiyMOL_b9FzB-S-25" edge="1">
          <mxGeometry width="50" height="50" relative="1" as="geometry">
            <mxPoint x="280" y="-100" as="sourcePoint" />
            <mxPoint x="160" y="-30" as="targetPoint" />
            <Array as="points">
              <mxPoint x="90" y="-100" />
            </Array>
          </mxGeometry>
        </mxCell>
        <mxCell id="7yUPPWwiyMOL_b9FzB-S-27" value="" style="endArrow=classic;html=1;rounded=1;fontFamily=Helvetica;fontSize=12;fontColor=default;exitX=0;exitY=0.5;exitDx=0;exitDy=0;entryX=0.792;entryY=0.011;entryDx=0;entryDy=0;entryPerimeter=0;labelBackgroundColor=none;strokeColor=#E07A5F;" parent="1" source="7yUPPWwiyMOL_b9FzB-S-3" target="7yUPPWwiyMOL_b9FzB-S-25" edge="1">
          <mxGeometry width="50" height="50" relative="1" as="geometry">
            <mxPoint x="110" y="20" as="sourcePoint" />
            <mxPoint x="110" y="40" as="targetPoint" />
            <Array as="points">
              <mxPoint x="110" y="-80" />
            </Array>
          </mxGeometry>
        </mxCell>
        <mxCell id="7yUPPWwiyMOL_b9FzB-S-29" value="" style="endArrow=classic;html=1;rounded=1;fontFamily=Helvetica;fontSize=12;fontColor=default;exitX=0.254;exitY=0.944;exitDx=0;exitDy=0;exitPerimeter=0;entryX=0.254;entryY=0.944;entryDx=0;entryDy=0;entryPerimeter=0;labelBackgroundColor=none;strokeColor=#E07A5F;" parent="1" target="7yUPPWwiyMOL_b9FzB-S-3" edge="1">
          <mxGeometry width="50" height="50" relative="1" as="geometry">
            <mxPoint x="160" y="90" as="sourcePoint" />
            <mxPoint x="280" y="60" as="targetPoint" />
            <Array as="points">
              <mxPoint x="310" y="90" />
            </Array>
          </mxGeometry>
        </mxCell>
        <mxCell id="7yUPPWwiyMOL_b9FzB-S-30" value="" style="endArrow=classic;html=1;rounded=1;fontFamily=Helvetica;fontSize=12;fontColor=default;entryX=1.001;entryY=0.423;entryDx=0;entryDy=0;entryPerimeter=0;exitX=0.5;exitY=0;exitDx=0;exitDy=0;labelBackgroundColor=none;strokeColor=#E07A5F;" parent="1" source="7yUPPWwiyMOL_b9FzB-S-4" edge="1">
          <mxGeometry width="50" height="50" relative="1" as="geometry">
            <mxPoint x="340" y="110" as="sourcePoint" />
            <mxPoint x="160.24" y="111.51999999999998" as="targetPoint" />
          </mxGeometry>
        </mxCell>
        <mxCell id="7yUPPWwiyMOL_b9FzB-S-31" value="" style="endArrow=classic;html=1;rounded=1;fontFamily=Helvetica;fontSize=12;fontColor=default;exitX=0.063;exitY=0.246;exitDx=0;exitDy=0;entryX=1;entryY=0.5;entryDx=0;entryDy=0;entryPerimeter=0;exitPerimeter=0;labelBackgroundColor=none;strokeColor=#E07A5F;" parent="1" source="7yUPPWwiyMOL_b9FzB-S-4" edge="1">
          <mxGeometry width="50" height="50" relative="1" as="geometry">
            <mxPoint x="330" y="120" as="sourcePoint" />
            <mxPoint x="160" y="130" as="targetPoint" />
          </mxGeometry>
        </mxCell>
        <mxCell id="7yUPPWwiyMOL_b9FzB-S-32" value="" style="endArrow=classic;html=1;rounded=1;fontFamily=Helvetica;fontSize=12;fontColor=default;exitX=1.001;exitY=0.585;exitDx=0;exitDy=0;exitPerimeter=0;entryX=0.068;entryY=0.754;entryDx=0;entryDy=0;entryPerimeter=0;labelBackgroundColor=none;strokeColor=#E07A5F;" parent="1" target="7yUPPWwiyMOL_b9FzB-S-4" edge="1">
          <mxGeometry width="50" height="50" relative="1" as="geometry">
            <mxPoint x="160.24" y="170.39999999999986" as="sourcePoint" />
            <mxPoint x="290" y="170" as="targetPoint" />
          </mxGeometry>
        </mxCell>
        <mxCell id="7yUPPWwiyMOL_b9FzB-S-33" value="" style="endArrow=classic;html=1;rounded=1;fontFamily=Helvetica;fontSize=12;fontColor=default;exitX=1.003;exitY=0.746;exitDx=0;exitDy=0;exitPerimeter=0;entryX=0.5;entryY=1;entryDx=0;entryDy=0;labelBackgroundColor=none;strokeColor=#E07A5F;" parent="1" target="7yUPPWwiyMOL_b9FzB-S-4" edge="1">
          <mxGeometry width="50" height="50" relative="1" as="geometry">
            <mxPoint x="160.72000000000003" y="189.03999999999996" as="sourcePoint" />
            <mxPoint x="380" y="70" as="targetPoint" />
          </mxGeometry>
        </mxCell>
        <mxCell id="7yUPPWwiyMOL_b9FzB-S-28" value="" style="endArrow=block;html=1;rounded=1;fontFamily=Helvetica;fontSize=12;fontColor=default;exitX=0.08;exitY=0.774;exitDx=0;exitDy=0;exitPerimeter=0;endFill=1;entryX=0.08;entryY=0.774;entryDx=0;entryDy=0;entryPerimeter=0;labelBackgroundColor=none;strokeColor=#E07A5F;" parent="1" target="7yUPPWwiyMOL_b9FzB-S-3" edge="1">
          <mxGeometry width="50" height="50" relative="1" as="geometry">
            <mxPoint x="160" y="70" as="sourcePoint" />
            <mxPoint x="200" y="20" as="targetPoint" />
            <Array as="points">
              <mxPoint x="290" y="70" />
            </Array>
          </mxGeometry>
        </mxCell>
        <mxCell id="7yUPPWwiyMOL_b9FzB-S-34" value="" style="endArrow=classic;html=1;rounded=1;fontFamily=Helvetica;fontSize=12;fontColor=default;entryX=0.5;entryY=0;entryDx=0;entryDy=0;labelBackgroundColor=none;strokeColor=#E07A5F;" parent="1" target="7yUPPWwiyMOL_b9FzB-S-5" edge="1">
          <mxGeometry width="50" height="50" relative="1" as="geometry">
            <mxPoint x="160" y="249" as="sourcePoint" />
            <mxPoint x="380" y="270" as="targetPoint" />
            <Array as="points">
              <mxPoint x="340" y="249" />
            </Array>
          </mxGeometry>
        </mxCell>
        <mxCell id="7yUPPWwiyMOL_b9FzB-S-35" value="" style="endArrow=classic;html=1;rounded=1;fontFamily=Helvetica;fontSize=12;fontColor=default;exitX=0.982;exitY=0.956;exitDx=0;exitDy=0;exitPerimeter=0;entryX=0.334;entryY=0.025;entryDx=0;entryDy=0;entryPerimeter=0;labelBackgroundColor=none;strokeColor=#E07A5F;" parent="1" source="7yUPPWwiyMOL_b9FzB-S-25" target="7yUPPWwiyMOL_b9FzB-S-5" edge="1">
          <mxGeometry width="50" height="50" relative="1" as="geometry">
            <mxPoint x="330" y="320" as="sourcePoint" />
            <mxPoint x="320" y="320" as="targetPoint" />
            <Array as="points">
              <mxPoint x="320" y="270" />
            </Array>
          </mxGeometry>
        </mxCell>
        <mxCell id="7yUPPWwiyMOL_b9FzB-S-37" value="" style="endArrow=classic;html=1;rounded=1;fontFamily=Helvetica;fontSize=12;fontColor=default;exitX=0.159;exitY=0.124;exitDx=0;exitDy=0;exitPerimeter=0;entryX=0.159;entryY=0.124;entryDx=0;entryDy=0;entryPerimeter=0;labelBackgroundColor=none;strokeColor=#E07A5F;" parent="1" source="7yUPPWwiyMOL_b9FzB-S-5" edge="1">
          <mxGeometry width="50" height="50" relative="1" as="geometry">
            <mxPoint x="297.57359312880726" y="329.7157287525383" as="sourcePoint" />
            <mxPoint x="139.5999999999999" y="273.9200000000001" as="targetPoint" />
            <Array as="points">
              <mxPoint x="140" y="330" />
            </Array>
          </mxGeometry>
        </mxCell>
        <mxCell id="7yUPPWwiyMOL_b9FzB-S-38" value="" style="endArrow=classic;html=1;rounded=1;fontFamily=Helvetica;fontSize=12;fontColor=default;entryX=0.835;entryY=0.983;entryDx=0;entryDy=0;entryPerimeter=0;exitX=0.02;exitY=0.371;exitDx=0;exitDy=0;exitPerimeter=0;labelBackgroundColor=none;strokeColor=#E07A5F;" parent="1" source="7yUPPWwiyMOL_b9FzB-S-5" target="7yUPPWwiyMOL_b9FzB-S-25" edge="1">
          <mxGeometry width="50" height="50" relative="1" as="geometry">
            <mxPoint x="280" y="350" as="sourcePoint" />
            <mxPoint x="120" y="280" as="targetPoint" />
            <Array as="points">
              <mxPoint x="120" y="350" />
            </Array>
          </mxGeometry>
        </mxCell>
        <mxCell id="7yUPPWwiyMOL_b9FzB-S-39" value="" style="endArrow=classic;html=1;rounded=1;fontFamily=Helvetica;fontSize=12;fontColor=default;exitX=0.016;exitY=0.63;exitDx=0;exitDy=0;exitPerimeter=0;entryX=0.749;entryY=0.992;entryDx=0;entryDy=0;entryPerimeter=0;labelBackgroundColor=none;strokeColor=#E07A5F;" parent="1" source="7yUPPWwiyMOL_b9FzB-S-5" target="7yUPPWwiyMOL_b9FzB-S-25" edge="1">
          <mxGeometry width="50" height="50" relative="1" as="geometry">
            <mxPoint x="280" y="370" as="sourcePoint" />
            <mxPoint x="160" y="350" as="targetPoint" />
            <Array as="points">
              <mxPoint x="100" y="370" />
            </Array>
          </mxGeometry>
        </mxCell>
        <mxCell id="7yUPPWwiyMOL_b9FzB-S-40" value="" style="endArrow=classic;html=1;rounded=1;fontFamily=Helvetica;fontSize=12;fontColor=default;exitX=0.167;exitY=0.883;exitDx=0;exitDy=0;exitPerimeter=0;entryX=0.666;entryY=1;entryDx=0;entryDy=0;entryPerimeter=0;labelBackgroundColor=none;strokeColor=#E07A5F;" parent="1" source="7yUPPWwiyMOL_b9FzB-S-5" target="7yUPPWwiyMOL_b9FzB-S-25" edge="1">
          <mxGeometry width="50" height="50" relative="1" as="geometry">
            <mxPoint x="210" y="300" as="sourcePoint" />
            <mxPoint x="160" y="350" as="targetPoint" />
            <Array as="points">
              <mxPoint x="80" y="390" />
            </Array>
          </mxGeometry>
        </mxCell>
        <mxCell id="7yUPPWwiyMOL_b9FzB-S-41" value="" style="endArrow=classic;html=1;rounded=1;fontFamily=Helvetica;fontSize=12;fontColor=default;exitX=-0.002;exitY=0.826;exitDx=0;exitDy=0;exitPerimeter=0;labelBackgroundColor=none;strokeColor=#E07A5F;" parent="1" edge="1">
          <mxGeometry width="50" height="50" relative="1" as="geometry">
            <mxPoint x="-80.48000000000002" y="240.24" as="sourcePoint" />
            <mxPoint x="-350" y="320" as="targetPoint" />
            <Array as="points">
              <mxPoint x="-350" y="240" />
            </Array>
          </mxGeometry>
        </mxCell>
        <mxCell id="7yUPPWwiyMOL_b9FzB-S-42" value="" style="endArrow=classic;html=1;rounded=1;fontFamily=Helvetica;fontSize=12;fontColor=default;exitX=1;exitY=0.5;exitDx=0;exitDy=0;entryX=0.166;entryY=0.988;entryDx=0;entryDy=0;entryPerimeter=0;labelBackgroundColor=none;strokeColor=#E07A5F;" parent="1" source="7yUPPWwiyMOL_b9FzB-S-7" target="7yUPPWwiyMOL_b9FzB-S-25" edge="1">
          <mxGeometry width="50" height="50" relative="1" as="geometry">
            <mxPoint x="-260" y="270" as="sourcePoint" />
            <mxPoint x="-40" y="290" as="targetPoint" />
            <Array as="points">
              <mxPoint x="-40" y="360" />
            </Array>
          </mxGeometry>
        </mxCell>
        <mxCell id="7yUPPWwiyMOL_b9FzB-S-44" value="Nguyễn Thị Phương Quỳnh - 2154050262" style="text;html=1;align=center;verticalAlign=middle;resizable=0;points=[];autosize=1;strokeColor=none;fillColor=none;fontSize=11;fontFamily=Helvetica;glass=0;shadow=0;opacity=80;rounded=1;textOpacity=50;labelBackgroundColor=none;fontColor=#393C56;" parent="1" vertex="1">
          <mxGeometry x="84" y="-161" width="230" height="30" as="geometry" />
        </mxCell>
        <mxCell id="7yUPPWwiyMOL_b9FzB-S-45" value="Tài khoản học viên" style="text;html=1;align=center;verticalAlign=middle;resizable=0;points=[];autosize=1;strokeColor=none;fillColor=none;fontSize=12;fontFamily=Helvetica;labelBackgroundColor=none;rounded=1;fontColor=#393C56;" parent="1" vertex="1">
          <mxGeometry x="-260" y="19" width="120" height="30" as="geometry" />
        </mxCell>
        <mxCell id="7yUPPWwiyMOL_b9FzB-S-46" value="Kết quả đăng kí học tập" style="text;html=1;align=center;verticalAlign=middle;resizable=0;points=[];autosize=1;strokeColor=none;fillColor=none;fontSize=12;fontFamily=Helvetica;labelBackgroundColor=none;rounded=1;fontColor=#393C56;" parent="1" vertex="1">
          <mxGeometry x="-274" y="39" width="150" height="30" as="geometry" />
        </mxCell>
        <mxCell id="7yUPPWwiyMOL_b9FzB-S-47" value="Kết quả học tập" style="text;html=1;align=center;verticalAlign=middle;resizable=0;points=[];autosize=1;strokeColor=none;fillColor=none;fontSize=12;fontFamily=Helvetica;labelBackgroundColor=none;rounded=1;fontColor=#393C56;" parent="1" vertex="1">
          <mxGeometry x="-256" y="60" width="110" height="30" as="geometry" />
        </mxCell>
        <mxCell id="7yUPPWwiyMOL_b9FzB-S-48" value="Lịch học lịch thi" style="text;html=1;align=center;verticalAlign=middle;resizable=0;points=[];autosize=1;strokeColor=none;fillColor=none;fontSize=12;fontFamily=Helvetica;labelBackgroundColor=none;rounded=1;fontColor=#393C56;" parent="1" vertex="1">
          <mxGeometry x="-257" y="80" width="110" height="30" as="geometry" />
        </mxCell>
        <mxCell id="7yUPPWwiyMOL_b9FzB-S-50" value="Kết quả phúc khảo" style="text;html=1;align=center;verticalAlign=middle;resizable=0;points=[];autosize=1;strokeColor=none;fillColor=none;fontSize=12;fontFamily=Helvetica;labelBackgroundColor=none;rounded=1;fontColor=#393C56;" parent="1" vertex="1">
          <mxGeometry x="-260" y="99" width="120" height="30" as="geometry" />
        </mxCell>
        <mxCell id="7yUPPWwiyMOL_b9FzB-S-51" value="Kết quả bảo lưu" style="text;html=1;align=center;verticalAlign=middle;resizable=0;points=[];autosize=1;strokeColor=none;fillColor=none;fontSize=12;fontFamily=Helvetica;labelBackgroundColor=none;rounded=1;fontColor=#393C56;" parent="1" vertex="1">
          <mxGeometry x="-259" y="119" width="110" height="30" as="geometry" />
        </mxCell>
        <mxCell id="7yUPPWwiyMOL_b9FzB-S-52" value="Thông tin học viên" style="text;html=1;align=center;verticalAlign=middle;resizable=0;points=[];autosize=1;strokeColor=none;fillColor=none;fontSize=12;fontFamily=Helvetica;labelBackgroundColor=none;rounded=1;fontColor=#393C56;" parent="1" vertex="1">
          <mxGeometry x="-244" y="-80" width="120" height="30" as="geometry" />
        </mxCell>
        <mxCell id="7yUPPWwiyMOL_b9FzB-S-53" value="Thông tin đăng kí lớp học" style="text;html=1;align=center;verticalAlign=middle;resizable=0;points=[];autosize=1;strokeColor=none;fillColor=none;fontSize=12;fontFamily=Helvetica;labelBackgroundColor=none;rounded=1;fontColor=#393C56;" parent="1" vertex="1">
          <mxGeometry x="-264" y="-102" width="160" height="30" as="geometry" />
        </mxCell>
        <mxCell id="7yUPPWwiyMOL_b9FzB-S-54" value="Tra cứu kết quả học tập" style="text;html=1;align=center;verticalAlign=middle;resizable=0;points=[];autosize=1;strokeColor=none;fillColor=none;fontSize=12;fontFamily=Helvetica;labelBackgroundColor=none;rounded=1;fontColor=#393C56;" parent="1" vertex="1">
          <mxGeometry x="-256" y="-123" width="150" height="30" as="geometry" />
        </mxCell>
        <mxCell id="7yUPPWwiyMOL_b9FzB-S-55" value="Tra cứu kết thông tin lớp học" style="text;html=1;align=center;verticalAlign=middle;resizable=0;points=[];autosize=1;strokeColor=none;fillColor=none;fontSize=12;fontFamily=Helvetica;labelBackgroundColor=none;rounded=1;fontColor=#393C56;" parent="1" vertex="1">
          <mxGeometry x="-270" y="-141" width="180" height="30" as="geometry" />
        </mxCell>
        <mxCell id="7yUPPWwiyMOL_b9FzB-S-56" value="Yêu cầu phúc khảo" style="text;html=1;align=center;verticalAlign=middle;resizable=0;points=[];autosize=1;strokeColor=none;fillColor=none;fontSize=12;fontFamily=Helvetica;labelBackgroundColor=none;rounded=1;fontColor=#393C56;" parent="1" vertex="1">
          <mxGeometry x="-247" y="-161" width="130" height="30" as="geometry" />
        </mxCell>
        <mxCell id="7yUPPWwiyMOL_b9FzB-S-57" value="Yêu cầu bảo lưu" style="text;html=1;align=center;verticalAlign=middle;resizable=0;points=[];autosize=1;strokeColor=none;fillColor=none;fontSize=12;fontFamily=Helvetica;labelBackgroundColor=none;rounded=1;fontColor=#393C56;" parent="1" vertex="1">
          <mxGeometry x="-238" y="-181" width="110" height="30" as="geometry" />
        </mxCell>
        <mxCell id="7yUPPWwiyMOL_b9FzB-S-58" value="Danh sách lớp&amp;nbsp;" style="text;html=1;align=center;verticalAlign=middle;resizable=0;points=[];autosize=1;strokeColor=none;fillColor=none;fontSize=12;fontFamily=Helvetica;labelBackgroundColor=none;rounded=1;fontColor=#393C56;" parent="1" vertex="1">
          <mxGeometry x="-259" y="219" width="100" height="30" as="geometry" />
        </mxCell>
        <mxCell id="7yUPPWwiyMOL_b9FzB-S-59" value="Tra cứu lớp học" style="text;html=1;align=center;verticalAlign=middle;resizable=0;points=[];autosize=1;strokeColor=none;fillColor=none;fontSize=12;fontFamily=Helvetica;labelBackgroundColor=none;rounded=1;fontColor=#393C56;" parent="1" vertex="1">
          <mxGeometry x="-235" y="339" width="110" height="30" as="geometry" />
        </mxCell>
        <mxCell id="7yUPPWwiyMOL_b9FzB-S-60" value="Cập nhật thông tin học viên" style="text;html=1;align=center;verticalAlign=middle;resizable=0;points=[];autosize=1;strokeColor=none;fillColor=none;fontSize=12;fontFamily=Helvetica;labelBackgroundColor=none;rounded=1;fontColor=#393C56;" parent="1" vertex="1">
          <mxGeometry x="115" y="-122" width="170" height="30" as="geometry" />
        </mxCell>
        <mxCell id="7yUPPWwiyMOL_b9FzB-S-62" value="Dữ liệu học viên" style="text;html=1;align=center;verticalAlign=middle;resizable=0;points=[];autosize=1;strokeColor=none;fillColor=none;fontSize=12;fontFamily=Helvetica;labelBackgroundColor=none;rounded=1;fontColor=#393C56;" parent="1" vertex="1">
          <mxGeometry x="146" y="-101" width="110" height="30" as="geometry" />
        </mxCell>
        <mxCell id="7yUPPWwiyMOL_b9FzB-S-63" value="Kết quả tìm kiếm dữ liệu" style="text;html=1;align=center;verticalAlign=middle;resizable=0;points=[];autosize=1;strokeColor=none;fillColor=none;fontSize=12;fontFamily=Helvetica;labelBackgroundColor=none;rounded=1;fontColor=#393C56;" parent="1" vertex="1">
          <mxGeometry x="160" y="69" width="150" height="30" as="geometry" />
        </mxCell>
        <mxCell id="7yUPPWwiyMOL_b9FzB-S-65" value="Kết quả cập nhật" style="text;html=1;align=center;verticalAlign=middle;resizable=0;points=[];autosize=1;strokeColor=none;fillColor=none;fontSize=12;fontFamily=Helvetica;labelBackgroundColor=none;rounded=1;fontColor=#393C56;" parent="1" vertex="1">
          <mxGeometry x="172" y="49" width="110" height="30" as="geometry" />
        </mxCell>
        <mxCell id="7yUPPWwiyMOL_b9FzB-S-66" value="Thông tin học phí" style="text;html=1;align=center;verticalAlign=middle;resizable=0;points=[];autosize=1;strokeColor=none;fillColor=none;fontSize=12;fontFamily=Helvetica;labelBackgroundColor=none;rounded=1;fontColor=#393C56;" parent="1" vertex="1">
          <mxGeometry x="180" y="90" width="120" height="30" as="geometry" />
        </mxCell>
        <mxCell id="7yUPPWwiyMOL_b9FzB-S-68" value="Thống kê báo cáo" style="text;html=1;align=center;verticalAlign=middle;resizable=0;points=[];autosize=1;strokeColor=none;fillColor=none;fontSize=12;fontFamily=Helvetica;labelBackgroundColor=none;rounded=1;fontColor=#393C56;" parent="1" vertex="1">
          <mxGeometry x="179" y="109" width="120" height="30" as="geometry" />
        </mxCell>
        <mxCell id="7yUPPWwiyMOL_b9FzB-S-69" value="&lt;div style=&quot;text-align: center;&quot;&gt;Yêu cầu thống kê báo cáo&lt;/div&gt;" style="text;whiteSpace=wrap;html=1;fontSize=12;fontFamily=Helvetica;labelBackgroundColor=none;rounded=1;fontColor=#393C56;" parent="1" vertex="1">
          <mxGeometry x="172" y="170" width="150" height="40" as="geometry" />
        </mxCell>
        <mxCell id="7yUPPWwiyMOL_b9FzB-S-71" value="Biên lai học phí" style="text;html=1;align=center;verticalAlign=middle;resizable=0;points=[];autosize=1;strokeColor=none;fillColor=none;fontSize=12;fontFamily=Helvetica;labelBackgroundColor=none;rounded=1;fontColor=#393C56;" parent="1" vertex="1">
          <mxGeometry x="175" y="149" width="110" height="30" as="geometry" />
        </mxCell>
        <mxCell id="7yUPPWwiyMOL_b9FzB-S-72" value="Thông tin bảo lưu" style="text;html=1;align=center;verticalAlign=middle;resizable=0;points=[];autosize=1;strokeColor=none;fillColor=none;fontSize=12;fontFamily=Helvetica;labelBackgroundColor=none;rounded=1;fontColor=#393C56;" parent="1" vertex="1">
          <mxGeometry x="194" y="228" width="120" height="30" as="geometry" />
        </mxCell>
        <mxCell id="7yUPPWwiyMOL_b9FzB-S-73" value="Thông tin phúc khảo" style="text;html=1;align=center;verticalAlign=middle;resizable=0;points=[];autosize=1;strokeColor=none;fillColor=none;fontSize=12;fontFamily=Helvetica;labelBackgroundColor=none;rounded=1;fontColor=#393C56;" parent="1" vertex="1">
          <mxGeometry x="185" y="249" width="130" height="30" as="geometry" />
        </mxCell>
        <mxCell id="7yUPPWwiyMOL_b9FzB-S-74" value="Kết quả xét duyệt" style="text;html=1;align=center;verticalAlign=middle;resizable=0;points=[];autosize=1;strokeColor=none;fillColor=none;fontSize=12;fontFamily=Helvetica;labelBackgroundColor=none;rounded=1;fontColor=#393C56;" parent="1" vertex="1">
          <mxGeometry x="159" y="310" width="120" height="30" as="geometry" />
        </mxCell>
        <mxCell id="7yUPPWwiyMOL_b9FzB-S-75" value="Thông tin lớp học" style="text;html=1;align=center;verticalAlign=middle;resizable=0;points=[];autosize=1;strokeColor=none;fillColor=none;fontSize=12;fontFamily=Helvetica;labelBackgroundColor=none;rounded=1;fontColor=#393C56;" parent="1" vertex="1">
          <mxGeometry x="150" y="329" width="120" height="30" as="geometry" />
        </mxCell>
        <mxCell id="7yUPPWwiyMOL_b9FzB-S-76" value="Bảng điểm học viên" style="text;html=1;align=center;verticalAlign=middle;resizable=0;points=[];autosize=1;strokeColor=none;fillColor=none;fontSize=12;fontFamily=Helvetica;labelBackgroundColor=none;rounded=1;fontColor=#393C56;" parent="1" vertex="1">
          <mxGeometry x="139" y="350" width="130" height="30" as="geometry" />
        </mxCell>
        <mxCell id="7yUPPWwiyMOL_b9FzB-S-77" value="Điểm sau phúc khảo" style="text;html=1;align=center;verticalAlign=middle;resizable=0;points=[];autosize=1;strokeColor=none;fillColor=none;fontSize=12;fontFamily=Helvetica;labelBackgroundColor=none;rounded=1;fontColor=#393C56;" parent="1" vertex="1">
          <mxGeometry x="138" y="370" width="130" height="30" as="geometry" />
        </mxCell>
      </root>
    </mxGraphModel>
  </diagram>
</mxfile>
